<svg width="22" height="23" viewBox="0 0 22 23" fill="none" xmlns="http://www.w3.org/2000/svg">
<path d="M2.79999 21.8H18.8C19.3304 21.8 19.8391 21.5787 20.2142 21.1849C20.5893 20.7911 20.8 20.2569 20.8 19.7V2.89999C20.8 2.34303 20.5893 1.80889 20.2142 1.41506C19.8391 1.02124 19.3304 0.799988 18.8 0.799988H6.79999C6.26955 0.799988 5.76085 1.02124 5.38577 1.41506C5.0107 1.80889 4.79999 2.34303 4.79999 2.89999V19.7C4.79999 20.2569 4.58927 20.7911 4.2142 21.1849C3.83913 21.5787 3.33042 21.8 2.79999 21.8ZM2.79999 21.8C2.26955 21.8 1.76085 21.5787 1.38577 21.1849C1.0107 20.7911 0.799988 20.2569 0.799988 19.7V10.25C0.799988 9.09499 1.69999 8.14999 2.79999 8.14999H4.79999M16.8 13.4H8.80001M13.8 17.6H8.80001M8.80001 4.99999H16.8V9.19999H8.80001V4.99999Z" stroke="white" stroke-width="1.6" stroke-linecap="round" stroke-linejoin="round"/>
</svg>
